<svg display="none" xmlns="http://www.w3.org/2000/svg">
	<symbol id="search" viewBox="0 0 24 24" fill="none">
		<path d="M11 19C15.4183 19 19 15.4183 19 11C19 6.58172 15.4183 3 11 3C6.58172 3 3 6.58172 3 11C3 15.4183 6.58172 19 11 19Z" stroke="#6D31EE" stroke-width="2" stroke-linecap="round" stroke-linejoin="round">
		</path>
		<path d="M21 21L16.65 16.65" stroke="#6D31EE" stroke-width="2" stroke-linecap="round" stroke-linejoin="round">
		</path>
	</symbol>

	<symbol id="logo" viewBox="0 0 160 20">
		<path d="M29.2408 0.331491V11.7403C29.2408 14.4291 28.5054 16.4825 27.0345 17.9006C25.5636 19.3002 23.4783 20 20.7786 20C19.438 20 18.2371 19.8066 17.1758 19.4199C16.1332 19.0331 15.2767 18.4899 14.6064 17.7901C13.9176 18.4899 13.0518 19.0331 12.0091 19.4199C10.9665 19.8066 9.78418 20 8.46224 20C5.76252 20 3.67721 19.3002 2.20633 17.9006C0.735443 16.4825 0 14.4291 0 11.7403V0.331491H4.52437V11.6022C4.52437 13.1676 4.8502 14.3278 5.50186 15.0829C6.15351 15.8195 7.12169 16.1878 8.40639 16.1878C11.0316 16.1878 12.3443 14.6593 12.3443 11.6022V0.331491H16.8686V11.6022C16.8686 14.6593 18.1906 16.1878 20.8344 16.1878C23.4038 16.1878 24.6885 14.6593 24.6885 11.6022V0.331491H29.2408Z" fill="#292E39" />
		<path d="M97.6867 0.331491V11.7403C97.6867 14.4291 96.9513 16.4825 95.4804 17.9006C94.0095 19.3002 91.9242 20 89.2245 20C87.8839 20 86.683 19.8066 85.6217 19.4199C84.5791 19.0331 83.7226 18.4899 83.0524 17.7901C82.3635 18.4899 81.4977 19.0331 80.455 19.4199C79.4124 19.8066 78.2301 20 76.9082 20C74.2084 20 72.1231 19.3002 70.6522 17.9006C69.1814 16.4825 68.4459 14.4291 68.4459 11.7403V0.331491H72.9703V11.6022C72.9703 13.1676 73.2961 14.3278 73.9478 15.0829C74.5994 15.8195 75.5676 16.1878 76.8523 16.1878C79.4775 16.1878 80.7902 14.6593 80.7902 11.6022V0.331491H85.3145V11.6022C85.3145 14.6593 86.6365 16.1878 89.2803 16.1878C91.8497 16.1878 93.1344 14.6593 93.1344 11.6022V0.331491H97.6867Z" fill="#292E39" />
		<path d="M110.957 0C112.763 0 114.337 0.349908 115.677 1.04972C117.018 1.74954 118.061 2.78085 118.805 4.14365C119.55 5.50644 119.922 7.1547 119.922 9.0884V19.6685H115.398V15.0276H106.461V19.6685H101.992V9.0884C101.992 7.1547 102.365 5.50644 103.11 4.14365C103.854 2.78085 104.897 1.74954 106.238 1.04972C107.578 0.349908 109.151 0 110.957 0ZM115.398 11.4365V8.67403C115.398 7.07182 114.998 5.86556 114.197 5.05525C113.396 4.22652 112.307 3.81216 110.93 3.81216C109.533 3.81216 108.435 4.22652 107.634 5.05525C106.852 5.86556 106.461 7.07182 106.461 8.67403V11.4365H115.398Z" fill="#292E39" />
		<path d="M142.638 0.331491L134.176 19.6685H129.708L121.273 0.331491H126.161L132.109 14.1436L138.142 0.331491H142.638Z" fill="#292E39" />
		<path d="M160 18.011C159.069 18.6372 157.896 19.1252 156.481 19.4751C155.085 19.825 153.595 20 152.013 20C150.039 20 148.363 19.7606 146.985 19.2818C145.608 18.7845 144.565 18.1031 143.857 17.2376C143.15 16.3536 142.796 15.3499 142.796 14.2265C142.796 13.1952 143.085 12.2836 143.662 11.4917C144.239 10.6998 145.03 10.1105 146.036 9.72376C145.273 9.3186 144.677 8.76611 144.248 8.0663C143.839 7.36648 143.634 6.58379 143.634 5.71823C143.634 4.66851 143.96 3.71087 144.612 2.8453C145.263 1.97974 146.25 1.28913 147.572 0.773481C148.894 0.257827 150.514 0 152.431 0C153.698 0 154.936 0.128913 156.146 0.38674C157.356 0.62615 158.408 0.957641 159.302 1.38121L158.045 4.80663C156.332 4.01473 154.517 3.61878 152.599 3.61878C151.147 3.61878 150.048 3.83978 149.303 4.28177C148.577 4.70534 148.214 5.28545 148.214 6.0221C148.214 6.7035 148.456 7.22836 148.94 7.59668C149.443 7.94659 150.197 8.12155 151.203 8.12155H156.537V11.6575H150.923C149.788 11.6575 148.912 11.8508 148.298 12.2376C147.684 12.6243 147.376 13.186 147.376 13.9227C147.376 14.6961 147.767 15.3039 148.549 15.7459C149.35 16.1694 150.57 16.3812 152.208 16.3812C153.362 16.3812 154.517 16.2339 155.671 15.9392C156.825 15.6262 157.803 15.1934 158.604 14.6409L160 18.011Z" fill="#292E39" />
		<path d="M56.8231 11.2023H33.5484V7.82997H56.8231L52.7019 3.67492L55.0671 1.29033L63.2258 9.51613L55.0671 17.7419L52.7019 15.3574L56.8231 11.2023Z" fill="#6D31EE" />
	</symbol>
	<symbol id="youtube" viewBox="0 0 24 24">
		<g>
			<path d="M21.543 6.498C22 8.28 22 12 22 12C22 12 22 15.72 21.543 17.502C21.289 18.487 20.546 19.262 19.605 19.524C17.896 20 12 20 12 20C12 20 6.107 20 4.395 19.524C3.45 19.258 2.708 18.484 2.457 17.502C2 15.72 2 12 2 12C2 12 2 8.28 2.457 6.498C2.711 5.513 3.454 4.738 4.395 4.476C6.107 4 12 4 12 4C12 4 17.896 4 19.605 4.476C20.55 4.742 21.292 5.516 21.543 6.498ZM10 15.5L16 12L10 8.5V15.5Z" fill="#D2D5DD" />
		</g>
	</symbol>
	<symbol id="odnoclass" viewBox="0 0 20 20">
		<path d="M8.23378 6.14624C8.23378 7.0928 9.05694 7.86023 10.0724 7.86023C11.088 7.86023 11.9111 7.0928 11.9111 6.14624C11.9111 5.19968 11.088 4.43231 10.0724 4.43231C9.05694 4.43231 8.23378 5.19968 8.23378 6.14624Z" fill="#D2D5DD" />
		<path fill-rule="evenodd" clip-rule="evenodd" d="M6 0C2.68629 0 0 2.68629 0 6V14C0 17.3137 2.68629 20 6 20H14C17.3137 20 20 17.3137 20 14V6C20 2.68629 17.3137 0 14 0H6ZM5.62436 6.14617C5.62436 3.85633 7.61571 2 10.0724 2C12.5292 2 14.5206 3.85633 14.5206 6.14617C14.5206 8.43606 12.5292 10.2925 10.0724 10.2925C7.61571 10.2925 5.62436 8.43606 5.62436 6.14617ZM14.5472 12.4252C14.4907 12.4674 13.4236 13.2535 11.6427 13.5916L14.3307 16.0748C14.8034 16.5147 14.804 17.2285 14.3321 17.6691C13.8602 18.1097 13.0946 18.1104 12.6216 17.6704L10.012 15.3016L7.64177 17.6552C7.4046 17.8846 7.08805 18 6.77109 18C6.46897 18 6.16645 17.8952 5.93169 17.6842C5.45075 17.252 5.43691 16.5384 5.90062 16.0902L8.4519 13.6048C6.62134 13.2746 5.51009 12.468 5.45295 12.4252C4.93171 12.0357 4.84811 11.3262 5.26591 10.8404C5.6839 10.3547 6.44492 10.2767 6.96616 10.6662C6.97719 10.6744 8.13936 11.4883 10.012 11.4895C11.8847 11.4883 13.0228 10.6744 13.0338 10.6662C13.5551 10.2767 14.3163 10.3547 14.7341 10.8404C15.1519 11.3262 15.0683 12.0357 14.5472 12.4252Z" fill="#D2D5DD" />
	</symbol>
	<symbol id="vk" viewBox="0 0 20 20">
		<path fill-rule="evenodd" clip-rule="evenodd" d="M0 6C0 2.68652 2.68652 0 6 0H14C17.3135 0 20 2.68652 20 6V14C20 17.3135 17.3135 20 14 20H6C2.68652 20 0 17.3135 0 14V6ZM15.3438 11.4473C15.7139 11.7778 16.0845 12.1089 16.4121 12.4795C16.5415 12.626 16.6665 12.7754 16.7769 12.9346C16.835 13.0181 16.8892 13.104 16.938 13.1934C17.0425 13.3848 17.0439 13.5859 16.9727 13.7383C16.9058 13.8809 16.7754 13.981 16.606 13.9917L14.4209 13.9912C13.8569 14.0356 13.4077 13.8208 13.0293 13.4575C12.7271 13.1675 12.4468 12.8584 12.1558 12.5586C12.0366 12.4355 11.9116 12.3198 11.7622 12.2285C11.5962 12.1265 11.4419 12.0991 11.3086 12.1455C11.2031 12.1821 11.1104 12.2656 11.0352 12.3955C10.8613 12.6938 10.8213 13.0244 10.8047 13.3564C10.7812 13.8418 10.6255 13.9688 10.1089 13.9917C9.00439 14.0405 7.95654 13.8823 6.98242 13.3574C6.12305 12.8945 5.45801 12.2417 4.87842 11.502C3.75 10.0601 2.88574 8.47754 2.10938 6.84912C1.93457 6.48242 2.0625 6.28662 2.4917 6.27881C3.20459 6.26611 3.91797 6.26758 4.63086 6.27832C4.9209 6.28271 5.11279 6.43896 5.22461 6.69727C5.60986 7.59082 6.08203 8.44092 6.67432 9.229L6.78369 9.37207C6.90918 9.53174 7.04541 9.68262 7.22217 9.79688C7.4751 9.96045 7.66797 9.90625 7.7876 9.64014C7.86377 9.4707 7.89697 9.28955 7.91357 9.1084C7.97021 8.4873 7.97705 7.86621 7.87891 7.24756C7.81787 6.86035 7.58643 6.61035 7.17725 6.53711C6.96826 6.49951 6.99902 6.42676 7.10059 6.31445C7.27637 6.12061 7.44141 6.00049 7.771 6.00049L10.2397 6C10.6284 6.07178 10.7158 6.23633 10.7686 6.60596L10.771 9.19092C10.7661 9.33398 10.8472 9.75781 11.1191 9.85107C11.3374 9.91895 11.4814 9.75391 11.6118 9.62402C12.2036 9.03174 12.6255 8.33301 13.0034 7.60986C13.1699 7.29102 13.314 6.96094 13.4536 6.63037C13.5024 6.51562 13.5635 6.42822 13.6455 6.36816C13.7378 6.30029 13.8564 6.26758 14.0117 6.26953L16.3887 6.27246C16.4585 6.27246 16.5298 6.27295 16.5991 6.28418C16.8101 6.31836 16.9404 6.37939 16.9985 6.4834C17.0503 6.57666 17.0439 6.70508 16.9854 6.87939C16.7979 7.43555 16.4399 7.90283 16.0835 8.36768L16.041 8.42334C15.6436 8.94092 15.2202 9.43994 14.8271 9.95996C14.4658 10.4346 14.4941 10.6738 14.9429 11.0864C15.0752 11.208 15.2095 11.3276 15.3438 11.4473Z" fill="#D2D5DD" />
	</symbol>
	<symbol id="radio-ware" viewBox="0 0 1920 12">
		<path opacity="0.6" d="M-146 1C-137.756 1 -137.756 11 -129.512 11C-121.268 11 -121.268 1 -113.024 1C-104.78 1 -104.78 11 -96.5555 11C-88.3113 11 -88.3113 1 -80.0869 1C-71.8428 1 -71.8428 11 -63.6184 11C-55.3743 11 -55.3743 1 -47.1307 1C-38.8866 1 -38.8866 11 -30.6424 11C-22.3989 11 -22.3989 1 -14.1548 1C-5.91061 1 -5.91062 11 2.33353 11C10.5771 11 10.5771 1 18.8212 1C27.0652 1 27.0652 11 35.3091 11C43.5531 11 43.5531 1 51.7971 1C60.041 1 60.041 11 68.2657 11C76.5099 11 76.5099 1 84.7343 1C92.9784 1 92.9784 11 101.203 11C109.447 11 109.447 1 117.69 1C125.935 1 125.935 11 134.179 11C142.422 11 142.422 1 150.666 1C158.911 1 158.911 11 167.155 11C175.398 11 175.398 1 183.642 1C191.886 1 191.886 11 200.13 11C208.374 11 208.374 1 216.618 1C224.862 1 224.862 11 233.087 11C241.331 11 241.331 1 249.556 1C257.8 1 257.8 11 266.024 11C274.268 11 274.268 1 282.512 1M283 1C291.244 1 291.244 11 299.488 11C307.732 11 307.732 1 315.976 1C324.22 1 324.22 11 332.444 11C340.689 11 340.689 1 348.913 1C357.157 1 357.157 11 365.382 11C373.626 11 373.626 1 381.869 1C390.113 1 390.113 11 398.358 11C406.601 11 406.601 1 414.845 1C423.089 1 423.089 11 431.333 11C439.577 11 439.577 1 447.821 1C456.065 1 456.065 11 464.309 11C472.553 11 472.553 1 480.797 1C489.041 1 489.041 11 497.266 11C505.51 11 505.51 1 513.734 1C521.978 1 521.978 11 530.203 11C538.447 11 538.447 1 546.69 1C554.935 1 554.935 11 563.179 11C571.422 11 571.422 1 579.666 1C587.911 1 587.911 11 596.155 11C604.398 11 604.398 1 612.642 1C620.886 1 620.886 11 629.13 11C637.374 11 637.374 1 645.618 1C653.862 1 653.862 11 662.087 11C670.331 11 670.331 1 678.555 1C686.8 1 686.8 11 695.024 11C703.268 11 703.268 1 711.512 1C719.756 1 719.756 11 728 11C736.244 11 736.244 1 744.488 1C752.732 1 752.732 11 760.976 11C769.22 11 769.22 1 777.444 1C785.689 1 785.689 11 793.913 11C802.157 11 802.157 1 810.382 1C818.626 1 818.626 11 826.869 11C835.113 11 835.113 1 843.358 1C851.601 1 851.601 11 859.845 11C868.089 11 868.089 1 876.333 1C884.577 1 884.577 11 892.821 11C901.065 11 901.065 1 909.309 1C917.553 1 917.553 11 925.797 11C934.041 11 934.041 1 942.266 1C950.51 1 950.51 11 958.734 11C966.978 11 966.978 1 975.203 1C983.447 1 983.447 11 991.69 11C999.935 11 999.935 1 1008.18 1C1016.42 1 1016.42 11 1024.67 11C1032.91 11 1032.91 1 1041.15 1C1049.4 1 1049.4 11 1057.64 11C1065.89 11 1065.89 1 1074.13 1C1082.37 1 1082.37 11 1090.62 11C1098.86 11 1098.86 1 1107.09 1C1115.33 1 1115.33 11 1123.56 11C1131.8 11 1131.8 1 1140.02 1C1148.27 1 1148.27 11 1156.51 11C1164.76 11 1164.76 1 1173 1M1174 1C1182.24 1 1182.24 11 1190.49 11C1198.73 11 1198.73 1 1206.98 1C1215.22 1 1215.22 11 1223.44 11C1231.69 11 1231.69 1 1239.91 1C1248.16 1 1248.16 11 1256.38 11C1264.63 11 1264.63 1 1272.87 1C1281.11 1 1281.11 11 1289.36 11C1297.6 11 1297.6 1 1305.85 1C1314.09 1 1314.09 11 1322.33 11C1330.58 11 1330.58 1 1338.82 1C1347.07 1 1347.07 11 1355.31 11C1363.55 11 1363.55 1 1371.8 1C1380.04 1 1380.04 11 1388.27 11C1396.51 11 1396.51 1 1404.73 1C1412.98 1 1412.98 11 1421.2 11C1429.45 11 1429.45 1 1437.69 1C1445.93 1 1445.93 11 1454.18 11C1462.42 11 1462.42 1 1470.67 1C1478.91 1 1478.91 11 1487.15 11C1495.4 11 1495.4 1 1503.64 1C1511.89 1 1511.89 11 1520.13 11C1528.37 11 1528.37 1 1536.62 1C1544.86 1 1544.86 11 1553.09 11C1561.33 11 1561.33 1 1569.56 1C1577.8 1 1577.8 11 1586.02 11C1594.27 11 1594.27 1 1602.51 1C1610.76 1 1610.76 11 1619 11M1620 11C1628.24 11 1628.24 1 1636.49 1C1644.73 1 1644.73 11 1652.98 11C1661.22 11 1661.22 1 1669.44 1C1677.69 1 1677.69 11 1685.91 11C1694.16 11 1694.16 1 1702.38 1C1710.63 1 1710.63 11 1718.87 11C1727.11 11 1727.11 1 1735.36 1C1743.6 1 1743.6 11 1751.85 11C1760.09 11 1760.09 1 1768.33 1C1776.58 1 1776.58 11 1784.82 11C1793.07 11 1793.07 1 1801.31 1C1809.55 1 1809.55 11 1817.8 11C1826.04 11 1826.04 1 1834.27 1C1842.51 1 1842.51 11 1850.73 11C1858.98 11 1858.98 1 1867.2 1C1875.45 1 1875.45 11 1883.69 11C1891.93 11 1891.93 1 1900.18 1C1908.42 1 1908.42 11 1916.67 11C1924.91 11 1924.91 1 1933.15 1C1941.4 1 1941.4 11 1949.64 11C1957.89 11 1957.89 1 1966.13 1C1974.37 1 1974.37 11 1982.62 11C1990.86 11 1990.86 1 1999.09 1C2007.33 1 2007.33 11 2015.56 11C2023.8 11 2023.8 1 2032.02 1C2040.27 1 2040.27 11 2048.51 11C2056.76 11 2056.76 1 2065 1" stroke="#F5F6F7" stroke-miterlimit="10" stroke-linecap="square" />
	</symbol>
</svg>
