<svg display="none" xmlns="http://www.w3.org/2000/svg">
	<symbol id="search" viewBox="0 0 24 24" fill="none">
		<path d="M11 19C15.4183 19 19 15.4183 19 11C19 6.58172 15.4183 3 11 3C6.58172 3 3 6.58172 3 11C3 15.4183 6.58172 19 11 19Z" stroke-width="2" stroke-linecap="round" stroke-linejoin="round" />
		<path d="M21 21L16.65 16.65" stroke-width="2" stroke-linecap="round" stroke-linejoin="round" />
	</symbol>
	<symbol id="youtube" viewBox="0 0 24 24">
		<g>
			<path d="M21.543 6.498C22 8.28 22 12 22 12C22 12 22 15.72 21.543 17.502C21.289 18.487 20.546 19.262 19.605 19.524C17.896 20 12 20 12 20C12 20 6.107 20 4.395 19.524C3.45 19.258 2.708 18.484 2.457 17.502C2 15.72 2 12 2 12C2 12 2 8.28 2.457 6.498C2.711 5.513 3.454 4.738 4.395 4.476C6.107 4 12 4 12 4C12 4 17.896 4 19.605 4.476C20.55 4.742 21.292 5.516 21.543 6.498ZM10 15.5L16 12L10 8.5V15.5Z" fill="#D2D5DD" />
		</g>
	</symbol>
	<symbol id="odnoclass" viewBox="0 0 20 20">
		<path d="M8.23378 6.14624C8.23378 7.0928 9.05694 7.86023 10.0724 7.86023C11.088 7.86023 11.9111 7.0928 11.9111 6.14624C11.9111 5.19968 11.088 4.43231 10.0724 4.43231C9.05694 4.43231 8.23378 5.19968 8.23378 6.14624Z" fill="#D2D5DD" />
		<path fill-rule="evenodd" clip-rule="evenodd" d="M6 0C2.68629 0 0 2.68629 0 6V14C0 17.3137 2.68629 20 6 20H14C17.3137 20 20 17.3137 20 14V6C20 2.68629 17.3137 0 14 0H6ZM5.62436 6.14617C5.62436 3.85633 7.61571 2 10.0724 2C12.5292 2 14.5206 3.85633 14.5206 6.14617C14.5206 8.43606 12.5292 10.2925 10.0724 10.2925C7.61571 10.2925 5.62436 8.43606 5.62436 6.14617ZM14.5472 12.4252C14.4907 12.4674 13.4236 13.2535 11.6427 13.5916L14.3307 16.0748C14.8034 16.5147 14.804 17.2285 14.3321 17.6691C13.8602 18.1097 13.0946 18.1104 12.6216 17.6704L10.012 15.3016L7.64177 17.6552C7.4046 17.8846 7.08805 18 6.77109 18C6.46897 18 6.16645 17.8952 5.93169 17.6842C5.45075 17.252 5.43691 16.5384 5.90062 16.0902L8.4519 13.6048C6.62134 13.2746 5.51009 12.468 5.45295 12.4252C4.93171 12.0357 4.84811 11.3262 5.26591 10.8404C5.6839 10.3547 6.44492 10.2767 6.96616 10.6662C6.97719 10.6744 8.13936 11.4883 10.012 11.4895C11.8847 11.4883 13.0228 10.6744 13.0338 10.6662C13.5551 10.2767 14.3163 10.3547 14.7341 10.8404C15.1519 11.3262 15.0683 12.0357 14.5472 12.4252Z" fill="#D2D5DD" />
	</symbol>
	<symbol id="vk" viewBox="0 0 20 20">
		<path fill-rule="evenodd" clip-rule="evenodd" d="M0 6C0 2.68652 2.68652 0 6 0H14C17.3135 0 20 2.68652 20 6V14C20 17.3135 17.3135 20 14 20H6C2.68652 20 0 17.3135 0 14V6ZM15.3438 11.4473C15.7139 11.7778 16.0845 12.1089 16.4121 12.4795C16.5415 12.626 16.6665 12.7754 16.7769 12.9346C16.835 13.0181 16.8892 13.104 16.938 13.1934C17.0425 13.3848 17.0439 13.5859 16.9727 13.7383C16.9058 13.8809 16.7754 13.981 16.606 13.9917L14.4209 13.9912C13.8569 14.0356 13.4077 13.8208 13.0293 13.4575C12.7271 13.1675 12.4468 12.8584 12.1558 12.5586C12.0366 12.4355 11.9116 12.3198 11.7622 12.2285C11.5962 12.1265 11.4419 12.0991 11.3086 12.1455C11.2031 12.1821 11.1104 12.2656 11.0352 12.3955C10.8613 12.6938 10.8213 13.0244 10.8047 13.3564C10.7812 13.8418 10.6255 13.9688 10.1089 13.9917C9.00439 14.0405 7.95654 13.8823 6.98242 13.3574C6.12305 12.8945 5.45801 12.2417 4.87842 11.502C3.75 10.0601 2.88574 8.47754 2.10938 6.84912C1.93457 6.48242 2.0625 6.28662 2.4917 6.27881C3.20459 6.26611 3.91797 6.26758 4.63086 6.27832C4.9209 6.28271 5.11279 6.43896 5.22461 6.69727C5.60986 7.59082 6.08203 8.44092 6.67432 9.229L6.78369 9.37207C6.90918 9.53174 7.04541 9.68262 7.22217 9.79688C7.4751 9.96045 7.66797 9.90625 7.7876 9.64014C7.86377 9.4707 7.89697 9.28955 7.91357 9.1084C7.97021 8.4873 7.97705 7.86621 7.87891 7.24756C7.81787 6.86035 7.58643 6.61035 7.17725 6.53711C6.96826 6.49951 6.99902 6.42676 7.10059 6.31445C7.27637 6.12061 7.44141 6.00049 7.771 6.00049L10.2397 6C10.6284 6.07178 10.7158 6.23633 10.7686 6.60596L10.771 9.19092C10.7661 9.33398 10.8472 9.75781 11.1191 9.85107C11.3374 9.91895 11.4814 9.75391 11.6118 9.62402C12.2036 9.03174 12.6255 8.33301 13.0034 7.60986C13.1699 7.29102 13.314 6.96094 13.4536 6.63037C13.5024 6.51562 13.5635 6.42822 13.6455 6.36816C13.7378 6.30029 13.8564 6.26758 14.0117 6.26953L16.3887 6.27246C16.4585 6.27246 16.5298 6.27295 16.5991 6.28418C16.8101 6.31836 16.9404 6.37939 16.9985 6.4834C17.0503 6.57666 17.0439 6.70508 16.9854 6.87939C16.7979 7.43555 16.4399 7.90283 16.0835 8.36768L16.041 8.42334C15.6436 8.94092 15.2202 9.43994 14.8271 9.95996C14.4658 10.4346 14.4941 10.6738 14.9429 11.0864C15.0752 11.208 15.2095 11.3276 15.3438 11.4473Z" fill="#D2D5DD" />
	</symbol>
	<symbol id="radio-wave" viewBox="0 0 1920 12">
		<path opacity="0.6" d="M-146 1C-137.756 1 -137.756 11 -129.512 11C-121.268 11 -121.268 1 -113.024 1C-104.78 1 -104.78 11 -96.5555 11C-88.3113 11 -88.3113 1 -80.0869 1C-71.8428 1 -71.8428 11 -63.6184 11C-55.3743 11 -55.3743 1 -47.1307 1C-38.8866 1 -38.8866 11 -30.6424 11C-22.3989 11 -22.3989 1 -14.1548 1C-5.91061 1 -5.91062 11 2.33353 11C10.5771 11 10.5771 1 18.8212 1C27.0652 1 27.0652 11 35.3091 11C43.5531 11 43.5531 1 51.7971 1C60.041 1 60.041 11 68.2657 11C76.5099 11 76.5099 1 84.7343 1C92.9784 1 92.9784 11 101.203 11C109.447 11 109.447 1 117.69 1C125.935 1 125.935 11 134.179 11C142.422 11 142.422 1 150.666 1C158.911 1 158.911 11 167.155 11C175.398 11 175.398 1 183.642 1C191.886 1 191.886 11 200.13 11C208.374 11 208.374 1 216.618 1C224.862 1 224.862 11 233.087 11C241.331 11 241.331 1 249.556 1C257.8 1 257.8 11 266.024 11C274.268 11 274.268 1 282.512 1M283 1C291.244 1 291.244 11 299.488 11C307.732 11 307.732 1 315.976 1C324.22 1 324.22 11 332.444 11C340.689 11 340.689 1 348.913 1C357.157 1 357.157 11 365.382 11C373.626 11 373.626 1 381.869 1C390.113 1 390.113 11 398.358 11C406.601 11 406.601 1 414.845 1C423.089 1 423.089 11 431.333 11C439.577 11 439.577 1 447.821 1C456.065 1 456.065 11 464.309 11C472.553 11 472.553 1 480.797 1C489.041 1 489.041 11 497.266 11C505.51 11 505.51 1 513.734 1C521.978 1 521.978 11 530.203 11C538.447 11 538.447 1 546.69 1C554.935 1 554.935 11 563.179 11C571.422 11 571.422 1 579.666 1C587.911 1 587.911 11 596.155 11C604.398 11 604.398 1 612.642 1C620.886 1 620.886 11 629.13 11C637.374 11 637.374 1 645.618 1C653.862 1 653.862 11 662.087 11C670.331 11 670.331 1 678.555 1C686.8 1 686.8 11 695.024 11C703.268 11 703.268 1 711.512 1C719.756 1 719.756 11 728 11C736.244 11 736.244 1 744.488 1C752.732 1 752.732 11 760.976 11C769.22 11 769.22 1 777.444 1C785.689 1 785.689 11 793.913 11C802.157 11 802.157 1 810.382 1C818.626 1 818.626 11 826.869 11C835.113 11 835.113 1 843.358 1C851.601 1 851.601 11 859.845 11C868.089 11 868.089 1 876.333 1C884.577 1 884.577 11 892.821 11C901.065 11 901.065 1 909.309 1C917.553 1 917.553 11 925.797 11C934.041 11 934.041 1 942.266 1C950.51 1 950.51 11 958.734 11C966.978 11 966.978 1 975.203 1C983.447 1 983.447 11 991.69 11C999.935 11 999.935 1 1008.18 1C1016.42 1 1016.42 11 1024.67 11C1032.91 11 1032.91 1 1041.15 1C1049.4 1 1049.4 11 1057.64 11C1065.89 11 1065.89 1 1074.13 1C1082.37 1 1082.37 11 1090.62 11C1098.86 11 1098.86 1 1107.09 1C1115.33 1 1115.33 11 1123.56 11C1131.8 11 1131.8 1 1140.02 1C1148.27 1 1148.27 11 1156.51 11C1164.76 11 1164.76 1 1173 1M1174 1C1182.24 1 1182.24 11 1190.49 11C1198.73 11 1198.73 1 1206.98 1C1215.22 1 1215.22 11 1223.44 11C1231.69 11 1231.69 1 1239.91 1C1248.16 1 1248.16 11 1256.38 11C1264.63 11 1264.63 1 1272.87 1C1281.11 1 1281.11 11 1289.36 11C1297.6 11 1297.6 1 1305.85 1C1314.09 1 1314.09 11 1322.33 11C1330.58 11 1330.58 1 1338.82 1C1347.07 1 1347.07 11 1355.31 11C1363.55 11 1363.55 1 1371.8 1C1380.04 1 1380.04 11 1388.27 11C1396.51 11 1396.51 1 1404.73 1C1412.98 1 1412.98 11 1421.2 11C1429.45 11 1429.45 1 1437.69 1C1445.93 1 1445.93 11 1454.18 11C1462.42 11 1462.42 1 1470.67 1C1478.91 1 1478.91 11 1487.15 11C1495.4 11 1495.4 1 1503.64 1C1511.89 1 1511.89 11 1520.13 11C1528.37 11 1528.37 1 1536.62 1C1544.86 1 1544.86 11 1553.09 11C1561.33 11 1561.33 1 1569.56 1C1577.8 1 1577.8 11 1586.02 11C1594.27 11 1594.27 1 1602.51 1C1610.76 1 1610.76 11 1619 11M1620 11C1628.24 11 1628.24 1 1636.49 1C1644.73 1 1644.73 11 1652.98 11C1661.22 11 1661.22 1 1669.44 1C1677.69 1 1677.69 11 1685.91 11C1694.16 11 1694.16 1 1702.38 1C1710.63 1 1710.63 11 1718.87 11C1727.11 11 1727.11 1 1735.36 1C1743.6 1 1743.6 11 1751.85 11C1760.09 11 1760.09 1 1768.33 1C1776.58 1 1776.58 11 1784.82 11C1793.07 11 1793.07 1 1801.31 1C1809.55 1 1809.55 11 1817.8 11C1826.04 11 1826.04 1 1834.27 1C1842.51 1 1842.51 11 1850.73 11C1858.98 11 1858.98 1 1867.2 1C1875.45 1 1875.45 11 1883.69 11C1891.93 11 1891.93 1 1900.18 1C1908.42 1 1908.42 11 1916.67 11C1924.91 11 1924.91 1 1933.15 1C1941.4 1 1941.4 11 1949.64 11C1957.89 11 1957.89 1 1966.13 1C1974.37 1 1974.37 11 1982.62 11C1990.86 11 1990.86 1 1999.09 1C2007.33 1 2007.33 11 2015.56 11C2023.8 11 2023.8 1 2032.02 1C2040.27 1 2040.27 11 2048.51 11C2056.76 11 2056.76 1 2065 1" stroke="#F5F6F7" stroke-miterlimit="10" stroke-linecap="square" />
	</symbol>
	<symbol id="arrow-right" viewBox="0 0 28 13" width="28" height="13">
		<path d="M24.3536 6.85355C24.5488 6.65829 24.5488 6.34171 24.3536 6.14645L21.1716 2.96447C20.9763 2.7692 20.6597 2.7692 20.4645 2.96447C20.2692 3.15973 20.2692 3.47631 20.4645 3.67157L23.2929 6.5L20.4645 9.32843C20.2692 9.52369 20.2692 9.84027 20.4645 10.0355C20.6597 10.2308 20.9763 10.2308 21.1716 10.0355L24.3536 6.85355ZM4 7H24V6H4V7Z" />
	</symbol>

 <symbol id="icon-form"  viewBox="0 0 10 8">
  <path d="M8.94976 1.08233L4.00002 6.03208L1.17159 3.20365"/>
 </symbol>
</svg>
